<?xml version="1.0" standalone="no"?>
<!DOCTYPE svg PUBLIC "-//W3C//DTD SVG 20010904//EN"
 "http://www.w3.org/TR/2001/REC-SVG-20010904/DTD/svg10.dtd">
<svg version="1.0" xmlns="http://www.w3.org/2000/svg"
 width="217.000000pt" height="217.000000pt" viewBox="0 0 217.000000 217.000000"
 preserveAspectRatio="xMidYMid meet">
<metadata>
Created by potrace 1.14, written by Peter Selinger 2001-2017
</metadata>
<g transform="translate(0.000000,217.000000) scale(0.100000,-0.100000)"
fill="#000000" stroke="none">
<path d="M515 1883 c-210 -39 -388 -221 -425 -436 -11 -61 -9 -167 3 -222 20
-85 88 -198 161 -267 59 -57 185 -124 251 -133 54 -9 51 -20 -7 -29 -129 -21
-291 -147 -355 -276 -36 -71 -63 -166 -63 -217 l0 -34 783 3 c853 3 810 0 922
60 232 124 342 388 265 639 -30 100 -60 148 -144 231 -75 74 -171 124 -281
143 l-40 8 62 13 c235 49 421 267 427 499 l1 30 -748 0 c-532 0 -767 -3 -812
-12z m431 -518 c144 -39 307 -23 452 45 36 17 66 30 68 30 2 0 -10 -27 -27
-61 -42 -83 -70 -199 -70 -289 0 -131 17 -189 109 -373 2 -5 -28 8 -68 28
-192 97 -397 99 -595 7 -36 -17 -65 -29 -65 -26 0 3 11 26 24 52 48 97 68 177
71 294 3 106 -19 200 -74 308 l-38 76 77 -38 c42 -20 103 -44 136 -53z"/>
</g>
</svg>
