<svg width="29" height="34" viewBox="0 0 29 34" fill="none" xmlns="http://www.w3.org/2000/svg">
<path fill-rule="evenodd" clip-rule="evenodd" d="M13.4051 0.172873L2.11096 4.02909C0.84654 4.45921 0 5.61926 0 6.92236V18.2065C0 21.6435 1.27994 24.9542 3.58551 27.5333C4.67152 28.7505 6.05527 29.7631 7.73383 30.6441L13.8493 33.85C14.2308 34.0501 14.6904 34.05 15.0719 33.8498L21.1765 30.6457C22.8505 29.7661 24.2344 28.7515 25.3206 27.5339C27.6226 24.9566 28.9 21.6481 28.9 18.2132V6.92236C28.9 5.61926 28.0535 4.45921 26.7876 4.02861L15.4966 0.173427C14.8206 -0.0577165 14.0823 -0.0577165 13.4051 0.172873ZM14.6422 2.53217L25.9358 6.38821C26.1707 6.46811 26.3264 6.68151 26.3264 6.92236V18.2132C26.3264 21.0446 25.2736 23.7715 23.3763 25.8956L23.0393 26.2527C22.2228 27.0718 21.1942 27.7936 19.9528 28.4459L14.4586 31.3281L8.95642 28.4437C7.53321 27.6968 6.39276 26.8622 5.52935 25.8944C3.62859 23.7682 2.57362 21.0394 2.57362 18.2065V6.92236C2.57362 6.68151 2.72934 6.46811 2.96281 6.38869L14.2572 2.53236C14.3819 2.48992 14.5186 2.48992 14.6422 2.53217ZM20.834 12.3078C20.3315 11.8196 19.5167 11.8196 19.0142 12.3078L13.2353 17.9218L10.9001 15.6505L10.7558 15.5294C10.2521 15.1661 9.53722 15.2062 9.08025 15.65C8.57759 16.1381 8.57737 16.9298 9.07977 17.4182L12.326 20.5739L12.4703 20.695C12.974 21.0583 13.6891 21.018 14.146 20.5741L20.834 14.076L20.9586 13.9358C21.3324 13.4463 21.2908 12.7517 20.834 12.3078Z" fill="white"/>
</svg>
